<?xml version="1.0" encoding="utf-8"?>
<!-- Generator: Adobe Illustrator 16.0.4, SVG Export Plug-In . SVG Version: 6.00 Build 0)  -->
<!DOCTYPE svg PUBLIC "-//W3C//DTD SVG 1.1//EN" "http://www.w3.org/Graphics/SVG/1.1/DTD/svg11.dtd">
<svg version="1.1" id="Lager_1" xmlns="http://www.w3.org/2000/svg" xmlns:xlink="http://www.w3.org/1999/xlink" x="0px" y="0px"
	 width="300px" height="42px" viewBox="0 0 300 42" enable-background="new 0 0 300 42" xml:space="preserve">
<g>
	<path fill="#D10A11" d="M192.573,9.204c3.274,0,5.921-2.059,5.921-4.6c0-2.545-2.646-4.604-5.921-4.604
		c-3.263,0-5.92,2.059-5.92,4.604C186.653,7.145,189.311,9.204,192.573,9.204z"/>
	<path fill="#D10A11" d="M176.596,10.715c-3.573,0-6.031,1.774-8.06,4.237v-3.728c-1.547,0.062-3.157,0.062-4.705,0.123
		c-3.082-0.061-6.163-0.061-9.257-0.123v1.466c5.682,0,4.914,1.455,4.914,5.306v15.409c-0.201,3.07,0.768,6.187-4.914,6.187
		l-0.029-0.001c-4.872-0.175-4.279-2.454-4.279-5.187V11.271c-2.314,0.068-4.693,0.068-7.009,0.128
		c-2.314-0.06-4.703-0.06-7.017-0.128v1.595c5.263,0,4.628,1.704,4.628,4.361v12.866c0,4.303-0.21,8.218-6.239,8.218
		c-5.047,0-5.047-4.479-5.047-7.84v-19.2c-2.38,0.068-4.769,0.068-7.151,0.128c-2.38-0.06-5.155-0.06-7.537-0.128l0,0
		c0,0-0.001,0-0.001,0s-0.001,0-0.001,0l0,0c-2.453,0.068-3.633,0.068-6.086,0.128c-2.456-0.06-4.908-0.06-7.362-0.128v1.024
		l0.842,0.253c1.736,1.021,0.632,2.073,0.352,2.644c-2.809,3.6-6.662,6.443-10.308,9.605V1.289H77.955v1.459
		c5.747,0,4.974-0.05,4.974,3.741v27.907c0,3.79,0.773,5.251-4.974,5.251v1.588c3.224-0.061,6.449-0.061,9.672-0.123
		c3.226,0.062,6.449,0.062,9.68,0.123v-1.588c-5.753,0-4.979-1.461-4.979-5.251V25.94h0.137l9.256,11.125
		c0.771,1.005,1.546,1.89,2.243,2.968l0.915,1.202c2.173-0.061,4.416-0.061,6.591-0.123c2.381,0.062,4.695,0.062,7.077,0.123v-2.28
		l-2.521-0.442c-1.616-0.123-2.944-1.704-3.788-2.784l-12.06-14.03l7.015-5.495c3.874-2.954,4.81-2.69,7.758-3.329v-0.007
		c5.541,0.011,5.235,1.464,5.235,4.36v14.846c0,6.882,2.103,9.666,10.175,9.666c4.201,0,7.843-1.387,10.859-4.552v4.048
		c2.313-0.061,4.627-0.061,6.94-0.123c2.314,0.062,13,0.007,16.021-0.053c3.226,0.062,6.449,0.062,10.453,0.122v-2.463
		c-6.45,0-5.759-0.946-5.759-5.312V21.541c0-3.729,0.845-7.654,4.562-7.654c2.105,0,2.601,2.333,2.665,3.909
		c0.066,2.084,1.756,2.278,3.641,2.278c3.368,0,3.51-1.077,3.51-3.729C183.254,12.617,180.59,10.715,176.596,10.715z"/>
	<path fill="#D10A11" d="M295.021,34.396v-13.89c0-6.267-2.312-9.738-9.895-9.738c-5.316,0-7.423,1.896-11.351,4.358v-3.855
		c-2.314,0.068-4.628,0.068-6.942,0.128c-2.314-0.06-4.705-0.06-7.02-0.128v1.595c4.938,0,4.914,1.133,4.914,5.244v16.286
		c-0.21,3.27,0.768,5.251-4.914,5.251v1.588c3.159-0.061,6.384-0.061,9.607-0.123c3.236,0.062,6.46,0.062,8.774,0.123v-1.588
		c-4.771,0-3.999-2.194-4.068-5.251V21.52c0-3.532,1.261-7.138,6.032-7.138c4.627,0,5.461,3.527,5.461,7.131v12.884
		c0,3.348,0.703,5.251-4.057,5.251v1.588c2.303-0.061,5.537-0.061,8.763-0.123c3.224,0.062,6.449,0.062,9.673,0.123L300,39.647
		C294.253,39.647,295.021,38.187,295.021,34.396z"/>
	<path fill="#D10A11" d="M223.866,10.769c-3.576,0-6.021,1.768-8.061,4.231v-3.729c-1.536,0.068-3.148,0.068-4.694,0.128
		c-3.082-0.06-6.173-0.06-9.255-0.128v1.466c5.68,0,4.913,1.456,4.913,5.312v15.41c0,3.794,0.733,6.107-4.681,6.173
		c-5.479-0.065-4.743-2.378-4.743-6.051V11.4h-14.378v1.59c5.614,0,4.979,1.454,4.979,4.36v17.108c0,3.728,0.778,5.188-4.979,5.188
		v1.588c3.234-0.061,6.46-0.061,9.683-0.123c3.073,0.061,9.358,0.122,9.438,0.121c0.082,0.001,6.304-0.061,9.373-0.121
		c3.225,0.062,6.448,0.062,10.441,0.123v-1.588c-6.449,0-5.746-0.957-5.746-5.312V21.594c0-3.737,0.844-7.653,4.56-7.653
		c2.106,0,2.589,2.328,2.666,3.906c0.066,2.085,1.755,2.28,3.641,2.28c3.368,0,3.509-1.079,3.509-3.731
		C230.532,12.665,227.868,10.769,223.866,10.769z"/>
	<path fill="#D10A11" d="M253.48,33.433c-0.77,3.732-2.72,6.594-6.427,6.594c-7.019,0-6.239-8.908-6.239-13.079h19.902
		c0.494-10.934-1.962-16.179-14.299-16.179c-11.363,0-15.848,3.79-15.848,15.234c0,11.125,3.509,15.736,16.483,15.736
		c5.462,0,10.553-0.597,12.873-8.39C259.931,33.322,253.497,33.395,253.48,33.433z M246,12.358c5.892,0,5.188,6.61,5.33,12.558
		h-10.516C240.944,19.226,240.526,12.358,246,12.358z"/>
</g>
<g>
	<path fill="#1D1D1B" d="M78.224,27.142c0.494-10.94-1.962-16.189-14.299-16.189c-11.363,0-15.848,3.795-15.848,15.234
		c0,11.125,3.503,15.747,16.479,15.747c5.467,0,10.559-0.605,12.878-8.39c0.01-0.027-6.435,0.035-6.446,0.083
		c-0.775,3.732-2.714,6.584-6.432,6.584c-7.014,0-6.24-8.898-6.24-13.069H78.224z M63.502,12.548c5.891,0,5.188,6.614,5.331,12.552
		H58.315C58.458,19.42,58.034,12.548,63.502,12.548z"/>
	<path fill="#1D1D1B" d="M45.148,33.835V0.499H30.775v1.597c5.608,0,4.979,1.452,4.979,4.359V34.7c0,3.545,0.681,5.037-4.195,5.175
		c-4.443-0.081-3.592-0.79-3.592-5.451V20.549c0-8.555-3.637-9.321-13.409-9.833c-6.001,0-12.537,1.918-11.997,7.661
		c-0.133,1.531,0.541,2.047,1.349,1.913h4.717c1.08,0,1.481-0.508,1.348-1.913c0.203-4.084,1.952-5.04,4.583-5.04
		c5.996,0,4.38,7.024,4.38,10.849h-5.525c-1.754,0-3.306,0.062-5.054,0.259C2.898,24.951,0,28.022,0,33.13
		C0,38.619,2.963,42,8.964,42c4.247,0,6.739-1.282,10.312-3.515v3.009c2.225-0.073,4.514-0.073,6.739-0.135
		c2.092,0.06,3.799,0.065,5.122,0.078l0.006,0.028c0.344-0.006,0.671-0.009,1.007-0.014c0.2,0.003,0.387,0.008,0.561,0.014l0-0.022
		c2.604-0.033,5.048-0.036,7.736-0.087c3.073,0.06,9.368,0.12,9.444,0.12l0-1.591C44.412,39.821,45.148,37.509,45.148,33.835z
		 M18.939,32.55c0,3.257-1.481,5.552-5.055,5.552c-4.38,0-4.653-4.021-4.113-7.216c0.947-3.566,3.103-4.207,6.605-4.207h2.562V32.55
		z"/>
</g>
<g>
</g>
<g>
</g>
<g>
</g>
<g>
</g>
<g>
</g>
<g>
</g>
</svg>
